<svg xmlns="http://www.w3.org/2000/svg" viewBox="0 0 219 48" role="img" aria-label="Skupina ČEZ">
  <path fill="#F24F00" d="M48,0H0v48h48V0z"/>
  <path fill="#FFFFFF" d="M38.6,21H21v6h17.6V21z"/>
  <path fill="#FFFFFF" d="M9.1,9.1v29.8h29.8v-6H15.1V15.1h23.8v-6H9.1z"/>
  <path fill="#F24F00" d="M60,26.9h3.7c0.2,1.8,1.4,3,3.2,3c1.7,0,2.9-0.7,2.9-2.1c0-3.5-9.3-0.8-9.3-7.8c0-3,2.6-5,6.2-5c3.9,0,6.5,2.2,6.6,5.6h-3.6c-0.1-1.4-1.2-2.3-2.9-2.3c-1.5,0-2.4,0.7-2.4,1.8c0,3.7,9.4,0.7,9.4,7.8c0,3.3-2.7,5.4-6.7,5.4C62.9,33.1,60.1,30.7,60,26.9"/>
  <path fill="#F24F00" d="M75.9,32.9V15.1h3.9v7.4l6.7-7.4h4.8l-6.4,7.1L92,33h-5l-4.8-8l-2.4,2.7V33L75.9,32.9L75.9,32.9z"/>
  <path fill="#F24F00" d="M92.2,26.3V15.1h3.6v11.3c0,2.3,1.5,3.4,3.5,3.4c2.1,0,3.5-1.1,3.5-3.4V15.1h3.6v11.3c0,4.5-2.9,6.8-7.1,6.8C95,33.1,92.2,30.9,92.2,26.3z"/>
  <path fill="#F24F00" d="M109.4,15.1h7.3c3.8,0,6,2.3,6,5.6s-2.2,5.6-6,5.6h-3.5v6.6h-3.9L109.4,15.1L109.4,15.1z M116.5,23.2c1.8,0,2.6-1.1,2.6-2.4s-0.8-2.4-2.6-2.4h-3.3v4.9h3.3V23.2z"/>
  <path fill="#F24F00" d="M128.2,15.1h-3.9V33h3.9V15.1z"/>
  <path fill="#F24F00" d="M131.3,15.1h4.1l7.2,11.8V15.1h3.8V33h-4.1l-7.2-11.8V33h-3.8V15.1z"/>
  <path fill="#F24F00" d="M154.5,15.1h3.6l6.8,17.9h-4l-1.4-3.9H153l-1.4,3.9h-4L154.5,15.1z M154.2,25.8h4.2l-2.1-5.8L154.2,25.8z"/>
  <path fill="#F24F00" d="M171.3,24c0-6,4.2-9.1,9-9.1c4.5,0,7.8,2.6,8.3,6.4h-4c-0.3-1.9-2-3.1-4.3-3.1c-2.9,0-5.1,2-5.1,5.8s2.2,5.8,5.1,5.8c2.3,0,4.1-1.2,4.4-3.1h3.8c-0.3,3.8-3.6,6.4-8.2,6.4C175.4,33.1,171.3,30,171.3,24L171.3,24z M178.8,10.1l1.3,1.5l1.3-1.5h3l-2.7,3.6h-3.2l-2.7-3.6H178.8L178.8,10.1z"/>
  <path fill="#F24F00" d="M190.6,15.1h12.1v3.3h-8.3v3.8h6.6v3.3h-6.6v4.2h8.6V33h-12.4L190.6,15.1L190.6,15.1z"/>
  <path fill="#F24F00" d="M204.4,29.7l9.5-11.3h-9v-3.3h13.3v3.3l-9.5,11.3h9.5V33h-13.8V29.7z"/>
</svg>
