<svg xmlns="http://www.w3.org/2000/svg" width="395.412" height="67.724" viewBox="0 0 395.412 67.724"><g transform="translate(-1778.904 300.044)"><path d="M0,0V33.575H31.151V15.305C20.5,13.293,10.084,8.175,0,0" transform="translate(1791.299 -267.051)" fill="#e75014"/><path d="M0,0V-23.14H-31.151V-8.588A112.593,112.593,0,0,0,0,0" transform="translate(1822.45 -276.902)" fill="#e75014"/><path d="M0,0C-.661,1.34-1.409,2.855-1.895,3.845c16.84,19.337,34.712,29.317,53.144,29.593,20.177.3,41.633-11.305,62.1-33.5-.445-.943-1.029-2.183-1.657-3.508C64.969,26.192,22.253,11.937,0,0" transform="translate(1780.799 -287.228)" fill="#e75014"/><path d="M0,0V19.265H31.155V-16.4C20.78-8.2,10.373-2.708,0,0" transform="translate(1848.047 -252.743)" fill="#e75014"/><path d="M0,0V-13.308H-31.155V9.637A102.457,102.457,0,0,0,0,0" transform="translate(1879.201 -286.736)" fill="#e75014"/><path d="M0,0V-24.676H-11.8V0H-32.879V-66.571H-11.8v23.965H0V-66.571H21.08V0Z" transform="translate(1942.349 -233.473)" fill="#1d1d1b"/><path d="M0,0-.361,17.485h-45.4V-49.084H-1.441l.36,17.752h-23.6v6.921h19.1V-8.344h-19.1V0Z" transform="translate(2016.577 -250.959)" fill="#1d1d1b"/><path d="M0,0-.451,17.929h-41.8V-48.641h21.259V0Z" transform="translate(2064.5 -251.403)" fill="#1d1d1b"/><path d="M0,0C0,15.356-8.648,23.876-26.844,23.876S-53.959,15.444-53.959,0V-43.848h21.171V-.356c0,4.261,1.349,6.125,5.944,6.125S-21.08,4.084-21.08-.356V-43.848H0Z" transform="translate(2122.245 -256.196)" fill="#1d1d1b"/><path d="M0,0V-13.136L19.1-42.517l3.963-5.769-.091-.177H.451L.9-66.571H47.744V-52.1L29.456-23.876l-3.964,5.681.091.265h22.34L47.744,0Z" transform="translate(2126.393 -233.473)" fill="#1d1d1b"/></g></svg>