<svg version="1.1" id="Vrstva_1" xmlns="http://www.w3.org/2000/svg" x="0" y="0" viewBox="0 0 269.6 20.8" xml:space="preserve"><style>.st0{fill:#d9000d}</style><g id="Group_11" transform="translate(-47.62 -42.93)"><g id="Group_9" transform="translate(104.84 42.97)"><path id="Path_8" class="st0" d="M9.1 16.1c.3 0 .7-.1 1-.3.3-.3.4-.6.5-1L14 .6c0-.3.4-.6.8-.6h4.9c.3 0 .5.1.5.4v.3c0 .1-.1.2-.1.3l-3.7 15.4c-.2 1.2-.9 2.4-1.8 3.2-1 .7-2.1 1.1-3.3 1H.5c-.3 0-.5-.1-.5-.4 0-.1 0-.3.1-.4l.8-3.2c.1-.4.4-.6.8-.6l7.4.1"/><path id="Path_9" class="st0" d="M30.4.4v.3c0 .1 0 .2-.1.3l-4.6 19c-.1.4-.4.7-.8.6h-4.8c-.3 0-.5-.1-.5-.4v-.3c0-.1 0-.2.1-.3L24.3.7c0-.4.4-.7.8-.7h4.8c.3 0 .5.1.5.4"/><path id="Path_10" class="st0" d="M37.8 12.2l-1.9 7.7c-.1.4-.4.7-.8.6h-4.8c-.3 0-.5-.1-.5-.4v-.3c0-.1 0-.2.1-.3L34.5.6c0-.3.4-.6.8-.6h4.8c.3 0 .5.1.5.4v.3c0 .1 0 .2-.1.3l-1.6 6.7H50l1.7-7c.1-.4.4-.7.8-.7h4.8c.3 0 .5.1.5.4v.3c0 .1-.1.2-.1.3l-4.6 18.9c-.1.4-.4.7-.8.6h-4.8c-.3 0-.5-.1-.5-.4v-.3c0-.1 0-.2.1-.3l1.8-7.4-11.1.1"/><path id="Path_11" class="st0" d="M61 4.2c.2-1.2.9-2.4 1.8-3.2 1-.7 2.1-1.1 3.3-1h14.6c.9-.1 1.9.2 2.6.7.6.5.9 1.3.8 2.1 0 .5-.1 1-.2 1.4-.1.5-.3 1-.4 1.5L81 16.4c-.2 1.2-.9 2.4-1.8 3.2-1 .7-2.1 1.1-3.3 1H61.4c-2.4 0-3.6-.9-3.6-2.8 0-.4.1-.9.2-1.3.1-.5.2-1 .4-1.6L61 4.2m16.3 2c.1-.2.1-.4.1-.6 0-.1.1-.3.1-.4 0-.3-.1-.5-.2-.6-.3-.1-.5-.1-.8-.1h-8.3c-.3 0-.7.1-1 .3-.3.3-.4.6-.5 1l-2.1 8.6c0 .2-.1.4-.1.6 0 .1-.1.3-.1.4 0 .3.1.5.2.6.3.1.5.1.8.1h8.3c.3 0 .7-.1 1-.3.3-.3.4-.6.5-1l2.1-8.6z"/><path id="Path_12" class="st0" d="M106.9 0c.3 0 .5.1.5.4 0 .1 0 .3-.1.4l-.8 3.2c-.1.4-.4.6-.8.6h-6.6L95.4 20c-.1.4-.4.7-.8.6h-4.8c-.3 0-.5-.1-.5-.4v-.3c0-.1 0-.2.1-.3l3.6-15h-6.7c-.3 0-.5-.1-.5-.4 0-.1 0-.3.1-.4l.8-3.2c.1-.4.4-.6.8-.6h19.4"/><path id="Path_13" class="st0" d="M117 13.6c-.3 0-.5-.1-.5-.4 0-.2 0-.3.1-.5l.7-3c.1-.4.4-.6.8-.6h7.1c.3 0 .7-.1 1-.3.3-.3.4-.6.5-1l.4-1.7c0-.2.1-.4.1-.6 0-.1.1-.3.1-.4 0-.3-.1-.5-.2-.6-.3-.1-.5-.1-.8-.1H117l-3.7 15.4c-.1.4-.4.7-.8.6h-4.8c-.3 0-.5-.1-.5-.4v-.3c0-.1 0-.2.1-.3l3.6-15h-2.6c-.3 0-.5-.1-.5-.4 0-.1 0-.3.1-.4l.8-3.2c.1-.4.4-.6.8-.6h21c.9-.1 1.9.2 2.6.7.6.5.9 1.3.8 2.1 0 .5-.1.9-.2 1.3-.1.6-.3 1.1-.4 1.7l-.9 3.6c-.2 1.2-.9 2.4-1.8 3.2-1 .7-2.1 1.1-3.3 1h-1.5l.9 1.7c.1.2.2.4.4.5.2.1.4.2.6.2h4.2c.3 0 .5.1.5.4 0 .1 0 .3-.1.4l-.8 3.2c-.1.4-.4.6-.8.6h-7c-.5 0-.9-.1-1.3-.4-.3-.3-.6-.6-.7-1l-2.2-5.6-2.5.2"/><path id="Path_14" class="st0" d="M152.8 0c.2 0 .4 0 .6.1.1.1.2.3.3.5l5.6 18.8c0 .2.1.3.1.4 0 .1.1.2.1.3 0 .3-.2.4-.5.4h-5.4c-.3 0-.6-.2-.7-.5l-.9-3.4h-10.8l-2.5 3.4c-.2.3-.6.5-.9.5h-4.6c-.2 0-.4-.1-.3-.3 0-.1 0-.2.1-.3.1-.1.2-.2.3-.4L145 4.4h-3c-.3 0-.5-.1-.5-.4 0-.1 0-.3.1-.4l.8-3.2c.1-.4.4-.6.8-.6l9.6.2m-1.9 12.4l-1.6-7-5 7h6.6z"/><path id="Path_15" class="st0" d="M183.1 20.1c0 .4-.4.7-.8.6H180c-.4 0-.8-.1-1.1-.4l-8.7-10.4c-.2-.2-.4-.6-.7-1-.3-.4-.5-.7-.7-1.2h-.1l-.3 1.8c-.1.6-.2 1.1-.4 1.6l-2.1 8.8c-.1.4-.4.7-.8.6h-3.5c-.3 0-.5-.1-.5-.4v-.3c0-.1 0-.3.1-.3l3.6-15h-2.7c-.3 0-.5-.1-.5-.4 0-.1 0-.3.1-.4l.8-3.2c.1-.4.4-.6.8-.6h6c.4 0 .9.1 1.2.5l8.2 9.9c.3.4.6.7.8 1.1.3.3.5.7.6 1.1h.1c0-.6.1-1.1.2-1.7l.3-1.4 2.1-8.8c.1-.4.4-.7.8-.6h3.5c.3 0 .5.1.5.4v.3c0 .1 0 .2-.1.3l-4.4 19.1"/><path id="Path_16" class="st0" d="M196.8 6.5c0 .1 0 .2-.1.4v.4c0 .3.1.5.2.6.3.1.5.1.8.1h9c.9-.1 1.9.2 2.6.7.6.5.9 1.3.8 2.1 0 .4-.1.8-.1 1.1l-.3 1.2-.8 3.3c-.2 1.2-.9 2.3-1.8 3.2-1 .7-2.1 1.1-3.3 1H188c-.3 0-.5-.1-.5-.4 0-.1 0-.3.1-.4l.8-3.2c.1-.4.4-.6.8-.6h12.7c.3 0 .7-.1 1-.3.3-.3.4-.6.5-1l.2-.9c0-.2.1-.3.1-.4V13c0-.3-.1-.5-.2-.6-.3-.1-.5-.1-.8-.1h-9c-.9.1-1.9-.2-2.6-.7-.6-.5-.9-1.3-.8-2.1 0-.4.1-.8.2-1.2.1-.4.2-.7.2-1.1l.8-3.2c.2-1.2.9-2.4 1.8-3.2 1-.7 2.1-1.1 3.3-1h15.5c.3 0 .5.1.5.4 0 .1 0 .3-.1.4l-.8 3.2c-.1.4-.4.6-.8.6h-12.3c-.3 0-.7.1-1 .3-.3.3-.4.6-.5 1l-.3.8"/></g><g id="Group_10" transform="translate(47.62 42.93)"><path id="Path_17" class="st0" d="M48.9 0h-3.8c-.3 0-.6.2-.6.5-.6 2.4-3.4 12.6-4.2 15.6-.5-1.9-1.4-5.8-2-7.9-.1-.2-.3-.4-.5-.4h-5.1c-.2 0-.4.2-.5.4-.6 2.1-1.6 6.1-2.1 8-.5-1.9-1.5-5.8-2-7.9-.1-.2-.3-.4-.5-.4H25c-.3 0-.5.2-.5.5v.1c.9 3.7 2.1 8.6 3 12.2 0 .1.2.2.3.2h5.6c.1 0 .3-.1.3-.2.5-1.8 1.8-5.5 2.2-7.2.4 1.6 1.3 5.3 1.8 7.1 0 .1.2.2.3.2h5.5c.1 0 .3-.1.3-.2 1.5-5.7 3.8-14.3 5.4-20.1.2-.2 0-.4-.2-.5h-.1z"/><path id="Path_18" class="st0" d="M22.9 7.8h-9c-2.8 0-3.4.9-4.3 3-.1.2 0 .3.2.4H17.5l-1.2 4.3c-.1.4-.4.6-.8.6H5c-.1 0-.2-.1-.3-.1-.1-.1-.1-.2-.1-.3l1.6-6c.8-2.9 3.5-5 6.5-5H41c.3 0 .6-.2.6-.5l1-3.8c0-.1 0-.3-.2-.3H12.8c-5.2 0-9.7 3.5-11 8.4l-1.6 6a5.13 5.13 0 004.9 6.4h12.6c1.2 0 2.3-.8 2.6-2l.7-2.6c.5-1.9 1.6-5.9 2.2-8 0-.3-.1-.5-.3-.5z"/></g></g></svg>