<svg xmlns="http://www.w3.org/2000/svg" viewBox="0 0 89 68" role="img" aria-label="SWIETELSKY">
  <path fill="#002643" d="M77.8747 22.6592H17.7868L24.5495 18.0647C25.5809 17.3642 26.7928 16.99 28.0314 16.99H72.8968L50.8095 1.98302C50.6996 1.90626 50.5834 1.8311 50.4719 1.75593C47.0607 -0.585311 41.9384 -0.585311 38.5272 1.75593C38.4142 1.83269 38.3011 1.90626 38.1897 1.98302L4.89385 24.6054C4.15917 25.1172 3.48415 25.7137 2.88448 26.3838C-3.55335 33.681 1.47949 45.3008 11.126 45.3392H71.214L64.4512 49.9337C63.4198 50.6342 62.2079 51.0084 60.9677 51.0084H16.1039L38.1928 66.0154C38.3027 66.0938 38.4189 66.1673 38.5303 66.2441C41.9416 68.5853 47.0639 68.5853 50.4751 66.2441C50.5881 66.1673 50.7011 66.0937 50.811 66.017L84.1069 43.3962C84.8431 42.8828 85.5213 42.2831 86.1225 41.6114C87.9639 39.5501 89.0031 36.7898 89 34.0024C89 27.7399 84.019 22.664 77.8747 22.664V22.6592Z"/>
  <path fill="#002643" d="M14.6855 27.1257H17.1533L18.136 36.7882L18.1941 37.5734H18.2506L18.3668 36.689L19.6587 27.1257H22.0684L23.3792 36.6698L23.4938 37.5734H23.533L23.61 36.7882L24.555 27.1257H27.0416L25.1719 40.8725H22.2034L20.9695 32.6046L20.8926 31.6627H20.8534L20.7764 32.6046L19.5614 40.8725H16.4202L14.6855 27.1257Z"/>
  <path fill="#002643" d="M30.5166 27.1257H28.0488V40.8709H30.5166V27.1257Z"/>
  <path fill="#002643" d="M40.3754 40.8725V29.3438H38.5371V27.1257H44.5008V29.3438H42.6657V40.8725H40.3754Z"/>
  <path fill="#002643" d="M57.1737 40.8725H52.5098V27.1257H54.9775V38.6528H57.1737V40.8725Z"/>
  <path fill="#002643" d="M72.0747 40.8725H74.6383L71.2679 32.4815L74.5802 27.1257H71.9021L68.8174 32.3919V27.1257H66.3496V40.8725H68.8174V36.0061L69.7341 34.7396L72.0747 40.8725Z"/>
  <path fill="#002643" d="M82.263 27.1257L79.3918 35.963L79.4295 40.8725H76.9429L76.9821 35.963L74.1094 27.1257H76.7498L78.216 32.7629L79.6414 27.1257H82.263Z"/>
  <path fill="#002643" d="M45.5547 40.8725V27.1257H51.082V29.3454H47.8812V32.4479H50.8089V34.6468H47.8812V38.6528H51.0899V40.8725H45.5547Z"/>
  <path fill="#002643" d="M32.2227 40.8725V27.1257H37.4831V29.3454H34.5491V32.4479H37.4925V34.6468H34.5491V38.6528H37.4925V40.8725H32.2227Z"/>
</svg>
